<?xml version="1.0" encoding="UTF-8"?>
<svg width="200px" height="297px" viewBox="0 0 200 297" version="1.1" xmlns="http://www.w3.org/2000/svg" xmlns:xlink="http://www.w3.org/1999/xlink">
    <!-- Generator: Sketch 41.2 (35397) - http://www.bohemiancoding.com/sketch -->
    <title>icon_pin_rdv</title>
    <desc>Created with Sketch.</desc>
    <defs>
        <path d="M48,33.658 L48,45.454 C48,49.221 50.734,52.272 54.5,52.272 C58.264,52.272 61,49.221 61,45.454 L61,33.657 C65,36.016 68,40.411 68,45.454 C68,52.984 61.986,59.09 54.454,59.09 C46.925,59.09 41,52.984 41,45.454 C41,40.411 44,36.019 48,33.658 M139,33.658 L139,45.454 C139,49.221 141.734,52.272 145.501,52.272 C149.263,52.272 152,49.221 152,45.454 L152,33.657 C156,36.016 158.955,40.411 158.955,45.454 C158.955,52.984 152.919,59.09 145.387,59.09 C137.856,59.09 131.967,52.984 131.967,45.454 C131.967,40.411 135,36.019 139,33.658 M181.817,27.636 L152,27.636 L152,6.818 C152,3.053 149.263,0 145.501,0 C141.734,0 139,3.053 139,6.818 L139,27.636 L61,27.636 L61,6.818 C61,3.053 58.264,0 54.5,0 C50.734,0 48,3.053 48,6.818 L48,27.636 L18.182,27.636 C8.141,27.636 0,35.506 0,45.665 L0,60.886 L0,61.364 L0,63.636 L0,136.636 C0,191.865 72.333,296.636 100,296.636 C127.666,296.636 200,191.865 200,136.636 C200,91.885 199.836,70.24 199.773,63.636 L200,63.636 L200,61.364 L200,45.665 C200,35.506 191.857,27.636 181.817,27.636" id="path-1"></path>
        <path d="M0.25,178.510766 C7.11116354,187.02292 13.9114407,194.372493 20.2266321,200 L63.7733679,200 C96.4092157,170.917987 142,95.8456595 142,52 C142,33.1107409 136.762766,15.4448132 127.661201,0.375 L0.25,0.375 L0.25,178.510766 L0.25,178.510766 Z" id="path-3"></path>
    </defs>
    <g id="POI" stroke="none" stroke-width="1" fill="none" fill-rule="evenodd">
        <g id="Icons" transform="translate(-2400.000000, -392.000000)">
            <g id="Rendez-vous" transform="translate(0.000000, 392.000000)">
                <g id="icon_pin_rdv" transform="translate(2400.000000, 0.000000)">
                    <g id="Rectangle-3-+-Rectangle-3-Copy-Mask">
                        <mask id="mask-2" fill="white">
                            <use xlink:href="#path-1"></use>
                        </mask>
                        <use id="Mask" fill="#1275B8" xlink:href="#path-1"></use>
                        <rect id="Rectangle-3" fill="#0E4794" mask="url(#mask-2)" x="139" y="0" width="13" height="53"></rect>
                        <rect id="Rectangle-3-Copy" fill="#0E4794" mask="url(#mask-2)" x="48" y="0" width="13" height="53"></rect>
                    </g>
                    <g id="Group-5" transform="translate(58.000000, 84.636000)">
                        <mask id="mask-4" fill="white">
                            <use xlink:href="#path-3"></use>
                        </mask>
                        <g id="Clip-4"></g>
                        <polygon id="Fill-3" fill="#0E4794" mask="url(#mask-4)" points="0.25 90 72 200 181 157.5 85.375 0.375 19 48.5"></polygon>
                    </g>
                    <g id="Group-47" transform="translate(46.000000, 68.000000)">
                        <path d="M24.5000238,109.264 C18.6960238,109.264 13.0000238,103.61 13.0000238,97.848 L13.0000238,56.264 L7.50002377,56.264 C6.09002377,56.264 4.81802377,55.418 4.27302377,54.118 C3.72702377,52.819 4.01502377,51.319 5.00202377,50.312 L42.8160238,11.779 C44.0960238,10.028 48.9130238,4 54.5000238,4 C60.0720238,4 64.9120238,9.796 66.1560238,11.416 L80.0280238,25.605 L80.0000238,19.781 C79.9950238,18.85 80.3620238,17.955 81.0200238,17.295 C81.6760238,16.635 82.5680238,16.264 83.5000238,16.264 L91.5000238,16.264 C93.4140238,16.264 94.9740238,17.802 95.0000238,19.716 L95.2990238,41.649 L103.970024,50.284 C104.974024,51.284 105.275024,52.79 104.735024,54.1 C104.194024,55.41 102.917024,56.264 101.500024,56.264 L94.0000238,56.264 L94.0000238,97.848 C94.0000238,103.382 90.6710238,109.264 84.5000238,109.264 L24.5000238,109.264 Z" id="Fill-6" fill="#1275B8"></path>
                        <path d="M54.5,0.2363 C47.564,0.2363 42.109,6.5973 40.143,9.2413 L2.504,47.5973 C0.529,49.6093 -0.045,52.8603 1.045,55.4593 C2.137,58.0583 4.681,60.0003 7.5,60.0003 L9,60.0003 L9,97.5843 C9,105.2513 16.79,113.0003 24.5,113.0003 L84.5,113.0003 C91.911,113.0003 97,106.0883 97,97.5843 L97,60.0003 L101.5,60.0003 C104.334,60.0003 106.889,58.0413 107.97,55.4223 C109.052,52.8023 108.447,49.6643 106.439,47.6653 L98.779,39.9733 L98.499,19.6863 C98.447,15.8573 95.329,13.0003 91.5,13.0003 L83.5,13.0003 C81.638,13.0003 79.852,13.4923 78.538,14.8123 C77.805,15.5493 77.252,16.3073 76.908,17.2683 L68.804,8.9163 C66.88,6.4443 61.398,0.2363 54.5,0.2363 M54.5,7.2363 C58.869,7.2363 63.5,13.4423 63.5,13.4423 L83.57,34.2203 L83.5,20.0003 L91.5,20.0003 L91.818,43.3583 L101.5,53.0003 L90,53.0003 L90,97.5843 C90,101.4723 88.366,106.0003 84.5,106.0003 L24.5,106.0003 C20.634,106.0003 16,101.4723 16,97.5843 L16,53.0003 L7.5,53.0003 L45.5,14.0263 C45.5,14.0263 50.131,7.2363 54.5,7.2363" id="Fill-45" fill="#FFFFFF"></path>
                    </g>
                </g>
            </g>
        </g>
    </g>
</svg>