<?xml version="1.0" encoding="UTF-8"?>
<svg width="200px" height="260px" viewBox="0 0 200 260" version="1.1" xmlns="http://www.w3.org/2000/svg" xmlns:xlink="http://www.w3.org/1999/xlink">
    <!-- Generator: Sketch 46.2 (44496) - http://www.bohemiancoding.com/sketch -->
    <title>icon_pin_no</title>
    <desc>Created with Sketch.</desc>
    <defs>
        <path d="M27.6994163,210 L56.3005837,210 C88.9110206,186.990566 142,103.314065 142,56 C142,39.5640037 138.034808,24.0542108 131.008872,10.3749893 C131.008872,10.3749893 90.4506419,0.982898301 59.692714,0.98290081 C46.8643513,0.982901856 0.25,10.375 0.25,10.375 L0.25,182.510742 C9.91601302,194.502695 19.4611822,204.187226 27.6994163,210 Z" id="path-1"></path>
        <path d="M200,100 C200,155.229 127.666,260 100,260 C72.333,260 0,155.229 0,100 C0,44.771 44.771,0 100,0 C155.229,0 200,44.771 200,100" id="path-3"></path>
        <rect id="path-5" x="-10.1390831" y="94.4902084" width="244.659563" height="25"></rect>
        <filter x="-10.8%" y="-74.0%" width="121.7%" height="312.0%" filterUnits="objectBoundingBox" id="filter-6">
            <feOffset dx="0" dy="8" in="SourceAlpha" result="shadowOffsetOuter1"></feOffset>
            <feGaussianBlur stdDeviation="7.5" in="shadowOffsetOuter1" result="shadowBlurOuter1"></feGaussianBlur>
            <feColorMatrix values="0 0 0 0 0   0 0 0 0 0   0 0 0 0 0  0 0 0 0.3 0" type="matrix" in="shadowBlurOuter1"></feColorMatrix>
        </filter>
    </defs>
    <g id="POI" stroke="none" stroke-width="1" fill="none" fill-rule="evenodd">
        <g id="Icons" transform="translate(-2400.000000, -789.000000)">
            <g id="Sens-interdit" transform="translate(0.000000, 789.000000)">
                <g id="icon_pin_no" transform="translate(2400.000000, 0.000000)">
                    <path d="M200,100 C200,155.229 127.666,260 100,260 C72.333,260 0,155.229 0,100 C0,44.771 44.771,0 100,0 C155.229,0 200,44.771 200,100" id="Fill-1" fill="#E33038"></path>
                    <g id="Group-5" transform="translate(58.000000, 44.000000)">
                        <mask id="mask-2" fill="white">
                            <use xlink:href="#path-1"></use>
                        </mask>
                        <g id="Clip-4"></g>
                        <polygon id="Fill-3" fill="#AE1C22" mask="url(#mask-2)" points="-3.75 88 68 198 177 155.5 81.375 -1.625 15 46.5"></polygon>
                    </g>
                    <g id="Group-47" transform="translate(46.000000, 32.000000)">
                        <path d="M24.5000238,109.264 C18.6960238,109.264 13.0000238,103.61 13.0000238,97.848 L13.0000238,56.264 L7.50002377,56.264 C6.09002377,56.264 4.81802377,55.418 4.27302377,54.118 C3.72702377,52.819 4.01502377,51.319 5.00202377,50.312 L42.8160238,11.779 C44.0960238,10.028 48.9130238,4 54.5000238,4 C60.0720238,4 64.9120238,9.796 66.1560238,11.416 L80.0280238,25.605 L80.0000238,19.781 C79.9950238,18.85 80.3620238,17.955 81.0200238,17.295 C81.6760238,16.635 82.5680238,16.264 83.5000238,16.264 L91.5000238,16.264 C93.4140238,16.264 94.9740238,17.802 95.0000238,19.716 L95.2990238,41.649 L103.970024,50.284 C104.974024,51.284 105.275024,52.79 104.735024,54.1 C104.194024,55.41 102.917024,56.264 101.500024,56.264 L94.0000238,56.264 L94.0000238,97.848 C94.0000238,103.382 90.6710238,109.264 84.5000238,109.264 L24.5000238,109.264 Z" id="Fill-6" fill="#E33038"></path>
                        <path d="M54.5,0.2363 C47.564,0.2363 42.109,6.5973 40.143,9.2413 L2.504,47.5973 C0.529,49.6093 -0.045,52.8603 1.045,55.4593 C2.137,58.0583 4.681,60.0003 7.5,60.0003 L9,60.0003 L9,97.5843 C9,105.2513 16.79,113.0003 24.5,113.0003 L84.5,113.0003 C91.911,113.0003 97,106.0883 97,97.5843 L97,60.0003 L101.5,60.0003 C104.334,60.0003 106.889,58.0413 107.97,55.4223 C109.052,52.8023 108.447,49.6643 106.439,47.6653 L98.779,39.9733 L98.499,19.6863 C98.447,15.8573 95.329,13.0003 91.5,13.0003 L83.5,13.0003 C81.638,13.0003 79.852,13.4923 78.538,14.8123 C77.805,15.5493 77.252,16.3073 76.908,17.2683 L68.804,8.9163 C66.88,6.4443 61.398,0.2363 54.5,0.2363 M54.5,7.2363 C58.869,7.2363 63.5,13.4423 63.5,13.4423 L83.57,34.2203 L83.5,20.0003 L91.5,20.0003 L91.818,43.3583 L101.5,53.0003 L90,53.0003 L90,97.5843 C90,101.4723 88.366,106.0003 84.5,106.0003 L24.5,106.0003 C20.634,106.0003 16,101.4723 16,97.5843 L16,53.0003 L7.5,53.0003 L45.5,14.0263 C45.5,14.0263 50.131,7.2363 54.5,7.2363" id="Fill-45" fill="#FFFFFF"></path>
                    </g>
                    <g id="Rectangle-4">
                        <mask id="mask-4" fill="white">
                            <use xlink:href="#path-3"></use>
                        </mask>
                        <g id="Mask"></g>
                        <g mask="url(#mask-4)" transform="translate(112.190699, 106.990208) rotate(-30.000000) translate(-112.190699, -106.990208) ">
                            <use fill="black" fill-opacity="1" filter="url(#filter-6)" xlink:href="#path-5"></use>
                            <use fill="#FFFFFF" fill-rule="evenodd" xlink:href="#path-5"></use>
                        </g>
                    </g>
                </g>
            </g>
        </g>
    </g>
</svg>